<?xml version="1.0" encoding="UTF-8"?>
<svg width="380px" height="488px" viewBox="0 0 380 488" version="1.1" xmlns="http://www.w3.org/2000/svg" xmlns:xlink="http://www.w3.org/1999/xlink">
    <!-- Generator: Sketch 58 (84663) - https://sketch.com -->
    <title>Group 5</title>
    <desc>Created with Sketch.</desc>
    <g id="Design" stroke="none" stroke-width="1" fill="none" fill-rule="evenodd">
        <g id="Section-002" transform="translate(-522.000000, -704.000000)">
            <g id="Group-5" transform="translate(522.000000, 705.000000)">
                <path d="M134.864001,2.25517337 C141.205793,5.18330093 148.508604,11.7595296 147.776678,26.4919287 C146.504325,52.1239268 164.973999,90.167233 184.220243,95.4611559 C203.465312,100.756255 201.308304,135.644383 201.308304,135.644383 C201.308304,135.644383 204.852799,164.515086 218.076809,171.252485 C231.301993,177.989884 225.576993,198.313842 280.869706,223.052932 C329.676122,252.490672 349.579102,271.885253 344.124316,281.462548 C344.124316,281.462548 340.619765,297.032563 316.203047,283.416593 C291.783978,269.798271 299.506208,270.791176 273.753695,252.669489 C248.002357,234.547803 224.171883,221.775332 213.251737,197.132709 C202.330416,172.491263 195.620899,149.185062 195.620899,149.185062 C195.620899,149.185062 193.376953,123.443656 177.609413,103.07617 C177.609413,103.07617 169.120013,92.0824566 161.897091,97.3610859 C154.672994,102.639715 149.038457,102.857354 147.005982,78.7794167 C144.972333,54.7026555 140.983748,38.0103284 133.619845,28.6259678 C128.096918,21.5874033 121.144209,13.3759407 122.086431,6.39737391 C122.401289,4.0704007 123.580829,-3.82930865 134.864001,2.25517337 Z" id="Stroke-1" stroke="#6236FF" stroke-width="2" stroke-linecap="round" stroke-linejoin="round" stroke-dasharray="1.004,5.02"></path>
                <path d="M251.494247,239.190102 L251.496601,240.201379 L251.49307,238.683875 L250.985831,238.180002 L250.987008,238.686229 L251.494247,239.190102 Z M205.874475,206.403073 L207.897549,206.398364 L207.896372,205.892137 L206.379361,205.896846 L205.366059,204.886746 L204.859997,204.887924 L204.86235,205.900378 L204.358642,206.406605 L204.359819,206.912832 L205.874475,206.403073 Z M210.45493,216.514663 L210.962169,217.019713 L211.97194,216.511131 L212.47918,217.016181 L212.473295,214.99245 L212.474472,215.4975 L211.96841,215.499855 L211.464701,216.007259 L209.94769,216.010791 L210.45493,216.514663 Z M193.192313,192.769084 L193.197021,194.285411 L193.70426,194.790461 L194.716385,195.294333 L195.223625,196.304433 L195.229509,198.835568 L197.252582,198.829681 L197.757468,198.323454 L197.756291,197.817227 L198.26,196.804773 L198.258823,196.298546 L197.751583,195.794674 L198.257646,195.792319 L198.255292,195.287269 L197.74923,195.288447 L197.240813,194.278347 L197.237283,192.760843 L197.742168,192.253439 L197.740991,191.747212 L195.717918,191.753098 L195.716741,191.246871 L195.214209,192.259325 L195.21774,193.776829 L194.204438,193.274134 L192.685074,192.771439 L193.192313,192.769084 Z M377.013054,459.052737 L375.999752,458.043815 L375.990337,454.501403 L375.991514,455.00763 L375.986806,452.983899 L376.494046,453.488949 L376.489338,451.464041 L376.99187,449.943005 L376.989516,449.436778 L376.485808,449.944182 L375.979745,449.946537 L375.975038,448.429033 L375.467798,447.418934 L375.465444,446.40648 L374.958205,445.90143 L374.95232,443.371472 L374.446258,442.866422 L373.936665,441.856323 L373.934311,440.845046 L372.4173,440.8474 L371.910061,440.344705 L371.905353,437.812393 L371.398114,437.30852 L370.384812,436.805825 L369.879926,436.807003 L368.865447,435.796903 L368.864271,435.291853 L369.872865,434.277045 L370.378927,434.275867 L370.37422,432.252137 L368.351147,432.256846 L368.347616,430.739342 L368.851325,429.725711 L369.861096,429.218306 L370.873221,429.215952 L371.885346,429.718647 L372.389055,429.21242 L372.386701,428.199966 L370.859098,424.661086 L370.841445,417.578617 L369.82932,417.074744 L369.812844,410.496148 L370.316552,409.482516 L370.315375,408.977467 L368.798365,408.980998 L368.791303,406.452218 L369.290305,403.414856 L369.289128,402.908629 L369.79166,401.387593 L369.785775,399.36504 L370.288307,398.351408 L370.28713,397.846358 L370.792016,397.338954 L370.790839,396.832727 L370.28713,397.340131 L369.275005,397.342486 L368.261703,396.333564 L367.75211,394.81606 L367.747402,393.298556 L367.242517,393.299733 L367.243694,393.804783 L366.739985,394.312188 L366.744692,396.335918 L366.242161,397.855777 L366.232745,393.809492 L365.21709,392.293166 L364.206142,392.29552 L363.698902,391.791648 L363.697725,391.285421 L364.203788,391.283066 L363.189309,390.274144 L363.188132,389.769094 L363.694195,389.767917 L363.693018,389.26169 L363.183424,387.744186 L363.182248,387.237959 L365.199436,385.209519 L364.694551,385.210697 L364.693374,384.705647 L365.198259,384.70447 L365.195906,383.693193 L364.69102,383.69437 L363.175186,384.709179 L362.669124,384.710356 L362.66677,383.699079 L363.676541,383.190498 L363.164594,380.66054 L363.16224,379.649263 L361.139167,379.653972 L361.13799,379.148922 L360.631928,379.1501 L360.635458,380.667603 L360.129396,380.162554 L358.1075,380.16844 L355.572479,377.644369 L354.560354,377.646723 L355.572479,377.644369 L355.571302,377.139319 L354.558001,376.635446 L354.556824,376.130397 L352.526689,373.603971 L352.517274,369.556509 L351.501618,367.535133 L350.488316,367.032438 L348.967775,366.529742 L347.956827,366.532097 L343.901265,363.50533 L343.394026,363.001458 L342.379547,361.483954 L341.872307,360.980082 L340.345882,357.947429 L338.815925,353.394917 L338.814748,352.889867 L338.308686,352.384818 L338.305155,350.867314 L337.29303,350.869668 L336.279728,349.860746 L335.771312,348.850647 L335.765427,346.826916 L334.755656,347.335498 L334.249594,347.336675 L334.251947,347.842902 L333.747062,347.844079 L333.239822,347.339029 L333.743531,346.832802 L333.237468,346.83398 L331.716927,345.320008 L330.199916,345.323539 L330.203447,346.334816 L330.710686,346.839866 L331.215572,346.838689 L331.722812,347.342561 L331.726342,348.860065 L330.205801,347.34727 L329.699738,347.348448 L329.702092,348.359724 L328.691144,348.362079 L328.687613,346.844575 L328.180374,346.340703 L326.663363,346.344234 L324.127166,343.820163 L324.125989,343.313936 L323.619927,343.315113 L322.607802,342.811241 L322.101739,342.812418 L322.100562,342.306191 L321.593323,341.802318 L321.592146,340.791042 L321.08373,339.779765 L321.081376,338.768488 L320.069251,338.265793 L319.562011,337.760743 L319.052418,336.750644 L318.546356,336.245594 L317.536584,336.754176 L317.030522,336.249126 L316.524459,336.250303 L316.019574,336.757707 L315.513511,336.758885 L315.007448,336.255012 L315.006272,335.748785 L314.499032,335.243735 L313.488084,335.247267 L315.005095,335.242558 L315.508803,334.736331 L315.507627,334.230104 L313.987085,332.716132 L313.475138,330.187352 L314.483733,329.172543 L314.482556,328.666316 L313.468077,327.657394 L313.464546,326.13989 L312.452421,325.637195 L312.450067,324.625918 L312.951422,322.599833 L312.946715,321.082329 L312.439475,320.577279 L312.438298,320.072229 L313.450424,320.068698 L313.439832,316.021236 L313.94354,315.007605 L313.941186,313.996328 L313.433947,313.492455 L313.43277,312.986228 L312.926708,312.987406 L312.919646,309.950044 L312.925531,312.480001 L312.420645,312.481179 L312.417114,310.963675 L311.404989,310.966029 L311.909875,310.459802 L311.402636,309.954753 L311.401459,309.448526 L311.907521,309.447348 L311.908698,309.953575 L312.414761,309.952398 L312.916116,308.939944 L312.913762,307.92749 L312.408876,307.928667 L311.901637,307.423618 L311.898106,305.906114 L311.39322,306.414695 L311.396751,307.931022 L311.395574,307.424795 L310.384626,307.428327 L310.890689,307.427149 L310.889512,306.920922 L310.383449,306.9221 L309.878564,307.429504 L309.372501,306.924454 L308.869969,307.938086 L308.8735,309.456767 L309.383093,310.97427 L310.395218,311.478143 L310.398749,312.995647 L310.905988,314.005746 L311.413228,314.510796 L309.385447,312.995647 L308.879384,312.491774 L307.358843,311.989079 L306.85278,311.990256 L305.839478,310.981334 L305.333416,310.982511 L304.321291,310.479816 L303.816405,310.480993 L303.307989,309.975944 L302.80428,309.977121 L300.777676,309.47678 L300.270437,308.97173 L299.763197,307.961631 L300.266906,307.454227 L300.265729,306.949177 L299.759667,306.444127 L299.752605,303.915347 L299.244189,302.905247 L298.739303,302.906424 L297.728355,303.415006 L296.718584,303.417361 L296.213698,303.923588 L296.217229,305.441091 L295.71352,306.454723 L295.717051,307.972226 L296.22429,308.476099 L296.225467,308.982326 L295.720582,308.983503 L295.722935,309.99478 L296.230175,310.49983 L297.758954,314.546114 L298.269725,317.074895 L297.256423,316.065972 L296.748006,315.055873 L296.744476,313.538369 L294.715518,311.51817 L294.713164,310.506893 L294.205925,310.001844 L293.697508,308.991744 L293.191446,308.486694 L292.68656,308.994099 L292.182851,310.006553 L291.679143,310.513957 L289.6596,311.53112 L288.647475,311.533475 L290.159778,310.012439 L290.155071,307.482481 L289.142946,307.486013 L289.140592,306.473559 L288.128467,305.970864 L288.633352,305.463459 L288.632176,304.957232 L288.124936,304.45336 L288.122582,303.947133 L287.61652,303.94831 L288.121405,303.442083 L287.106927,301.924579 L287.102219,299.902026 L286.08774,298.384522 L286.079502,295.350692 L285.572263,294.845642 L285.568732,293.328138 L286.57968,293.325784 L286.578503,292.314507 L286.070087,291.30323 L286.066556,290.291953 L287.581213,288.769741 L287.580036,288.263514 L287.581213,288.769741 L287.077504,289.275968 L287.078681,289.782195 L286.067733,289.784549 L286.066556,289.278322 L285.560494,289.279499 L285.555786,287.761996 L284.546015,287.765527 L284.543661,287.2593 L283.536244,288.272932 L283.030181,288.274109 L283.027827,287.262832 L284.54013,285.741797 L284.032891,285.236747 L283.528005,285.237924 L283.526828,284.732874 L284.031714,284.731697 L283.524475,283.721598 L283.519767,281.697867 L283.013705,281.699044 L283.014881,282.205271 L282.506465,280.687767 L282.502934,279.675313 L283.510352,278.154278 L283.507998,277.141824 L283.000759,276.131724 L281.988634,276.134079 L281.98628,275.122802 L281.480217,274.617752 L280.468092,274.620107 L280.466915,274.115057 L279.960853,274.116234 L278.951082,274.624816 L278.445019,274.625993 L278.440312,272.602262 L279.958499,272.598731 L279.956145,272.092504 L277.934249,272.09839 L277.42701,271.59334 L277.424656,271.087113 L275.402759,271.092999 L274.389458,270.0829 L273.885749,271.096531 L273.38204,271.602758 L272.875978,271.603936 L272.870093,269.075155 L271.353082,269.078687 L270.845843,268.574814 L270.340957,268.575992 L269.831364,267.565892 L269.326478,267.567069 L269.830187,267.059665 L269.827833,266.047211 L269.321771,266.049566 L269.320594,265.543339 L268.814531,265.039466 L268.812178,264.027012 L269.31824,264.025835 L270.326835,263.012204 L270.324481,261.99975 L269.816065,261.495877 L269.814888,260.98965 L271.331898,260.986118 L271.330721,260.479891 L271.836784,260.478714 L271.841492,262.502445 L272.85244,262.50009 L272.857147,264.017594 L271.843845,263.008672 L271.841492,262.502445 L272.347554,262.501267 L270.827013,261.493522 L270.319773,260.988473 L269.811357,259.978373 L269.805473,257.449593 L269.298233,256.944543 L269.803119,256.437139 L268.78864,255.428216 L268.789817,255.934443 L267.778869,255.936798 L266.769097,256.44538 L266.766744,255.434103 L266.259504,254.929053 L266.25715,253.917776 L265.751088,253.918954 L265.754619,255.436457 L264.744847,255.438812 L264.741317,254.427535 L264.235254,254.428712 L263.729192,253.923663 L263.723307,251.393705 L262.713536,252.407336 L261.702588,252.409691 L261.195348,251.904641 L260.1844,251.908173 L260.189108,253.424499 L260.693993,253.423322 L260.696347,254.435776 L259.179336,254.439308 L258.675628,254.946712 L260.192638,254.942003 L260.193815,255.44823 L258.676804,255.451762 L258.675628,254.946712 L258.169565,254.947889 L257.15744,254.444017 L256.649024,253.433917 L256.142961,253.435095 L255.636899,252.930045 L256.141784,252.928868 L256.140607,252.423818 L255.635722,252.424995 L256.64667,252.422641 L256.138254,251.411364 L256.134723,250.400087 L255.629837,250.401264 L254.110473,249.899747 L252.592285,249.903278 L252.591108,249.397051 L251.576629,248.388129 L251.071744,248.389306 L250.566858,248.896711 L249.049847,248.900242 L248.542608,248.395193 L247.530483,247.892498 L247.023244,247.387448 L246.516004,246.377348 L246.00288,243.848568 L245.495641,243.343518 L243.471391,242.843177 L243.477275,245.373135 L243.985692,246.891816 L241.456556,246.897703 L239.933661,244.876326 L239.424067,243.866227 L238.916828,243.361177 L238.411942,243.362354 L239.422891,243.36 L239.41936,241.842496 L238.406058,240.833574 L238.402527,239.31607 L236.878455,237.294694 L235.860446,234.260863 L234.845967,233.251941 L234.847144,233.758168 L235.861623,234.76709 L235.863976,235.778367 L235.359091,236.285772 L231.81783,236.294012 L231.314121,236.801417 L230.808059,236.802594 L229.288694,236.299899 L228.782632,236.301076 L228.277746,236.80848 L227.263267,235.292154 L227.26209,234.785927 L226.754851,234.282054 L226.748966,231.753274 L226.241727,231.248224 L226.24055,230.741997 L226.245258,232.765728 L224.732954,234.286763 L224.226892,234.287941 L223.217121,234.796522 L221.696579,233.28255 L221.190517,233.283728 L220.177215,232.274805 L219.668798,231.264706 L219.162736,231.265883 L217.644548,231.775642 L216.632423,231.27177 L215.111882,230.264025 L215.110705,229.757798 L214.097403,228.748875 L213.084101,228.24618 L212.579216,228.247357 L212.071976,227.742308 L211.56356,226.732208 L211.057497,226.227158 L209.02854,224.713186 L208.015238,223.704264 L208.014061,223.199214 L207.506821,222.694165 L207.504468,221.681711 L208.002292,218.644349 L208.504824,217.12449 L209.007356,216.110859 L209.002648,214.088305 L207.989346,213.584433 L205.462564,213.590319 L205.461387,213.08527 L204.94944,211.061539 L204.944733,209.037808 L202.922836,209.043694 L199.8794,206.014573 L199.868808,201.462062 L200.873872,199.433622 L201.376403,197.913764 L201.369342,195.384983 L200.863279,194.879933 L200.859749,193.362429 L201.363458,192.856202 L201.357573,190.325067 L201.862459,189.817663 L201.857751,188.300159 L201.351689,187.796287 L200.843272,186.786187 L200.336033,186.281138 L200.326618,182.738726 L199.821732,182.739903 L198.807253,181.730981 L198.298837,180.213477 L197.283181,178.697151 L197.279651,176.67342 L196.261641,174.650866 L195.757932,174.652043 L195.752048,172.628313 L196.25458,171.615859 L196.253403,171.109632 L196.758289,170.603405 L196.754758,169.085901 L195.74381,169.088255 L195.238924,169.59566 L194.734038,169.596837 L193.71956,168.587915 L193.720736,169.092964 L193.215851,169.600369 L193.219382,171.117872 L193.218205,170.611645 L192.204903,169.602723 L192.202549,168.591446 L192.708611,168.590269 L192.707435,168.084042 L191.692956,167.07512 L191.185716,166.06502 L190.679654,166.066198 L190.676123,165.053744 L189.666352,165.057276 L187.637394,163.038254 L187.636217,162.533204 L187.130155,162.028154 L186.621738,161.018055 L185.608436,160.009133 L185.606083,158.996679 L185.098843,158.492806 L184.087895,158.495161 L184.085541,157.483884 L184.588073,156.470253 L184.583366,154.445345 L185.085897,153.43289 L186.095669,152.418082 L186.090961,150.900578 L185.583722,150.396706 L185.581368,149.385429 L186.0839,147.864393 L186.081546,146.853117 L185.06589,144.832918 L184.049058,143.315414 L183.542995,142.811541 L183.539465,141.294037 L184.043173,140.786633 L184.037289,137.751626 L183.019279,135.729072 L183.524165,135.221668 L183.521811,134.210391 L182.509686,133.707696 L183.014572,133.706519 L183.013395,133.200292 L182.506155,132.190192 L182.000093,132.191369 L181.996562,130.673866 L182.501448,130.672688 L182.49674,128.648957 L181.989501,128.145085 L181.988324,127.638858 L182.49321,127.131454 L183.504158,126.624049 L183.501804,125.611595 L182.994565,125.107723 L182.995742,125.612773 L181.478731,125.617482 L181.477554,125.111255 L180.970315,124.606205 L180.967961,124.101155 L181.469316,122.07507 L181.468139,121.568843 L183.486504,119.032999 L183.99139,118.525594 L181.968317,118.531481 L180.445422,117.016332 L180.444245,116.510105 L180.94913,116.0027 L177.409047,116.012118 L176.901807,115.507069 L176.395745,115.508246 L175.893213,116.01565 L175.384796,115.5106 L173.864255,114.502856 L173.357016,113.998983 L173.353485,112.479125 L172.847422,111.974075 L170.315933,111.981139 L168.795392,110.467167 L168.290506,110.468344 L167.279558,110.976925 L166.775849,110.978103 L166.267433,110.47423 L166.266256,109.968003 L165.759016,109.462954 L165.750778,105.415492 L164.741007,106.429123 L164.234944,106.4303 L164.230237,103.90152 L163.213404,102.384016 L162.203633,102.387548 L162.20481,102.893775 L161.701101,103.905052 L158.163371,105.433151 L156.141475,105.439037 L155.633058,104.427761 L155.128173,104.935165 L155.13288,106.958896 L154.125463,107.972527 L153.6194,107.973704 L152.10592,109.49474 L150.085201,110.511903 L149.075429,110.514258 L148.570544,111.021662 L148.569367,110.515435 L146.040231,110.522498 L144.520867,109.007349 L143.504034,107.491023 L142.484848,103.950965 L142.478963,101.421008 L141.971724,100.915958 L141.965839,98.3848227 L140.445298,97.378255 L140.438237,94.8482972 L139.423758,93.839375 L139.421404,92.8280982 L138.914164,91.8179987 L138.911811,90.8055447 L139.414343,89.7930907 L139.408458,87.2619556 L139.91099,85.7420972 L139.909813,85.2370475 L139.403751,85.2370475 L139.402574,84.7319978 L139.903929,83.2109622 L139.901575,82.1996854 L139.394335,81.6946356 L139.393159,81.1895859 L138.381033,80.6857134 L138.370441,76.6382518 L137.857318,73.6032443 L137.850256,70.5658822 L137.34184,69.5557827 L138.348081,67.52852 L135.820122,67.5344064 L135.315236,68.0418107 L133.798225,68.0453425 L133.29334,68.5527468 L133.289809,66.5278387 L133.791164,65.0068031 L133.789987,64.5017534 L134.797405,62.9795405 L134.796228,62.4744908 L135.301113,61.9670865 L134.286635,60.956987 L133.275686,60.9605188 L132.262384,60.4566463 L131.757499,60.4578236 L130.74302,59.4489014 L130.737136,56.4127165 L129.723834,55.9088441 L129.217771,55.4049716 L126.688635,55.410858 L126.67922,51.8708006 L129.200118,47.8139209 L130.211066,47.8115663 L130.209889,47.3053393 L128.692878,47.3100484 L127.169983,45.7948992 L126.159035,45.7972537 L125.149264,46.304658 L123.632253,46.3093671 L122.617774,45.2992676 L122.111712,45.3016221 L120.59117,44.2926999 L120.085108,43.7888274 L120.068631,37.2102307 L119.561392,36.705181 L119.559038,35.1876772 L119.052976,35.1888545 L119.049445,34.1764005 L119.553154,33.1639464 L120.056862,32.6565421 L120.055685,32.1514924 L119.549623,31.6464426 L119.547269,30.6351659 L119.04003,30.1301161 L118.533967,30.1312934 L118.027905,29.6274209 L118.020843,27.0986404 L117.513604,26.5935906 L117.510073,25.0760868 L117.002834,24.0659874 L117.001657,23.5597603 L116.494418,23.0558879 L116.490887,21.5383841 L115.479939,21.5407386 L114.470167,22.5543699 L114.461929,19.5193624 L113.955867,19.0154899 L112.944918,19.0178444 L112.44121,19.5252487 L112.442387,20.0302985 L111.432615,21.0451071 L110.92773,21.0462843 L111.431438,20.53888 L111.427908,19.0213763 L111.93397,19.020199 L111.932793,18.513972 L112.438856,18.5127947 L112.436502,18.0077449 L111.929263,17.5026952 L110.917138,17 L110.411075,17 L109.907366,17.5074043 L108.390356,17.5121134 L107.886647,18.0183404 L107.887824,18.5245674 L107.384115,19.5370215 L107.386469,20.5482982 L106.377874,21.5631068 L105.875343,22.5755608 L105.370457,23.0829651 L102.841321,23.0888515 L101.83155,23.597433 L101.326664,24.1048373 L101.330195,25.1161141 L101.840965,27.1398449 L101.848026,30.1760297 L101.345495,31.1884838 L101.352556,34.2258459 L98.3385416,43.3449958 L98.3432491,44.8624996 L97.3358316,46.3835352 L96.8344767,48.4096206 L96.8403611,50.4333514 L97.8513093,50.4309968 L98.3585487,50.9348693 L98.8646112,50.933692 L98.8657881,51.439919 L98.3620794,52.4523731 L97.3476005,51.4434509 L96.3366524,51.4458054 L95.3292349,52.966841 L95.3268811,51.9555642 L94.8172879,50.4380605 L94.8149341,49.4267837 L95.3198198,48.9193794 L94.3088716,49.427961 L93.3002772,50.4415923 L92.7965684,51.4540463 L92.2963904,52.9750819 L91.2889729,54.99999 L91.2936804,57.0237208 L90.2839091,57.0260753 L89.2706072,56.5233801 L88.7657215,56.5245574 L88.7657215,57.0307844 L88.2643666,58.5506427 L85.7481766,64.123849 L85.7505304,65.1351258 L86.2565929,65.1339485 L87.2663642,64.6265442 L88.2773124,64.6230124 L88.2749586,64.1179627 L87.7700729,64.1191399 L87.7653654,62.0942319 L88.2726048,62.5992816 L89.7896155,62.5945725 L89.2847299,63.1019768 L88.2749586,63.6093811 L89.2870836,64.1132536 L89.7931462,64.1120763 L89.7943231,64.6183033 L90.807625,65.6272255 L94.3477089,65.6178074 L94.8514177,65.1115804 L96.3684284,65.1068713 L94.346532,65.1127576 L93.8416464,65.6189846 L92.8318751,66.1275662 L92.3281664,66.6349705 L93.3402914,67.1376657 L93.3414683,67.6438927 L93.8487077,68.1489425 L95.8706041,68.1430561 L95.3668953,68.6504604 L93.3426452,69.1613965 L93.3473528,70.6789003 L93.8557691,71.6889998 L93.8592998,73.2065036 L93.3508834,72.1964041 L93.3473528,70.6789003 L92.8365827,69.1613965 L91.8232807,68.1524743 L91.3172182,68.1536515 L90.8146863,68.6598786 L90.8111557,67.6486018 L90.3050931,67.6497791 L90.3098007,69.1672829 L89.8072688,70.6883185 L89.8096226,71.6995952 L88.8010282,72.7132265 L87.7912569,73.2218081 L87.2875482,73.7292124 L86.7814857,73.7303897 L86.2742462,73.2253399 L86.2754231,73.7315669 L85.2668287,74.7451982 L84.76312,75.7588295 L85.2715363,76.768929 L85.2774208,78.7938371 L85.7834833,79.2977096 L85.7858371,80.3089863 L86.2918996,80.3078091 L86.297784,82.8377669 L86.8038466,83.3416394 L85.2880128,83.3463485 L85.2891896,83.8513982 L84.7878347,85.3724338 L84.7890116,85.8774835 L84.2853028,86.8911149 L84.2864797,87.3961646 L83.7839478,88.4086186 L82.2775292,93.4744206 L82.2834136,96.0043785 L82.7941837,98.0292865 L83.8098394,99.545613 L84.3159019,100.050663 L85.3327346,102.070862 L85.3397959,105.105869 L83.8310234,109.159217 L83.8369079,111.687998 L84.3465011,112.698097 L84.3512086,114.723005 L85.8846958,121.300425 L85.8858727,121.806652 L86.3954659,122.816751 L87.4087678,123.825674 L87.4158292,126.860681 L86.9097666,126.861858 L86.9132973,128.379362 L85.4009942,129.900398 L85.4021711,130.406625 L84.8961085,130.407802 L84.901993,132.936583 L82.8906886,138.002385 L81.8915094,142.560782 L80.8923301,147.625407 L80.8958608,149.142911 L80.3909751,149.649138 L80.392152,150.155365 L81.4101615,152.684145 L81.9174009,153.188018 L81.9185778,153.694245 L80.4062747,156.228912 L80.4121591,158.757692 L79.9084504,159.770146 L79.911981,160.781423 L79.4070954,161.288827 L79.4153336,164.828885 L78.9116249,165.842516 L78.4079161,165.843693 L77.9030305,166.351098 L77.4004986,167.870956 L76.8979668,168.88341 L76.8991437,169.895864 L74.880778,171.925481 L74.3747155,171.926658 L73.3684748,173.953921 L70.8464004,176.99717 L70.8522849,179.019723 L70.349753,180.540759 L70.3532837,182.058262 L69.848398,182.564489 L69.8507518,183.576944 L68.8503957,187.629114 L68.34551,188.135341 L66.3224368,188.141228 L65.818728,188.647455 L65.8210818,189.659909 L64.8101336,189.662263 L63.2966536,191.183299 L62.7905911,191.184476 L62.2857054,191.69188 L59.7589235,191.697767 L59.7601003,192.203994 L59.2540378,192.205171 L55.2078914,193.227043 L52.17387,193.740334 L49.1386717,193.747397 L48.1241928,192.737298 L47.6169534,191.728376 L47.6157765,191.222149 L45.0819332,190.216758 L44.0686312,189.206659 L43.5625687,189.209013 L41.5383186,188.707495 L40.5261935,188.711027 L37.4851108,185.683083 L36.4729857,185.180388 L35.9657463,184.675338 L32.4244855,184.683579 L30.4002354,183.677012 L29.8918191,182.666912 L28.8749865,180.644359 L28.3665701,179.634259 L27.8581538,178.116755 L27.8546232,176.596897 L28.3559781,175.584443 L26.8354368,174.576698 L25.8233117,174.072826 L25.3137185,172.555322 L24.807656,172.050272 L23.794354,171.547577 L20.7591557,171.55464 L18.7349056,170.548073 L18.2288431,170.54925 L17.7216037,170.045378 L16.7106555,170.047732 L16.2034161,169.542682 L13.6731034,169.548569 L12.1560927,170.058328 L10.1306657,169.05176 L9.6234263,168.547887 L7.60035307,168.552597 L7.09311365,168.047547 L6.08216548,168.049901 L4.05673847,167.043334 L2.53502021,166.035589 L1.52289515,165.532893 L0,163.511517 L0.620220822,415.57019 L74.9984669,415.386536 L75.0078821,484.598365 L272.339316,484.112151 L274.860213,481.576307 L274.856683,479.550222 L276.373693,479.547867 L277.381111,478.533059 L277.37758,477.015555 L278.389705,477.0132 L278.893414,476.506973 L278.892237,476.000746 L281.419019,474.475002 L282.429967,474.472647 L282.934853,473.965243 L283.939917,471.939158 L284.444802,471.431753 L286.972761,470.918463 L287.478824,470.917285 L287.986063,471.422335 L287.988417,472.434789 L290.01149,472.43008 L290.517553,472.932775 L291.022438,472.426548 L298.608669,472.407712 L300.629388,471.391726 L302.146399,470.881967 L304.675535,470.874904 L305.18042,470.368677 L306.192545,470.366322 L308.727566,472.890393 L309.739691,473.394266 L314.797962,473.381316 L316.822212,472.87038 L317.831984,472.868025 L319.857411,473.874593 L321.374421,473.871061 L322.896139,475.383856 L324.411973,475.380324 L324.419035,477.910282 L326.946994,477.903218 L327.454233,478.408268 L328.466358,478.91214 L329.986899,479.919885 L330.497669,481.943616 L330.505908,484.978624 L331.01197,485.483673 L331.015501,487 L331.521563,487 L332.026449,486.491418 L332.531335,486.490241 L333.03622,485.982837 L333.035043,485.477787 L334.044815,484.462979 L334.040107,482.945475 L334.542639,481.933021 L334.541462,481.426794 L335.046348,480.920567 L336.058473,480.918212 L337.068244,480.409631 L337.574307,480.408453 L338.588785,481.92478 L339.094848,481.923603 L339.09014,480.406099 L340.101089,480.403744 L340.605974,479.89634 L341.616922,479.893985 L341.615746,479.388936 L342.120631,478.881531 L342.111216,475.340297 L341.6028,474.330197 L341.096737,473.825148 L341.093207,472.307644 L340.585967,471.802594 L340.58479,471.298722 L341.090853,471.296367 L341.595738,470.788963 L341.594562,470.282736 L344.625052,468.758168 L346.142063,468.753459 L347.150657,467.738651 L348.667668,467.735119 L349.677439,466.721487 L350.181148,465.709033 L350.684857,465.707856 L351.188566,464.694225 L351.694628,464.693048 L352.200691,465.198097 L352.203044,466.209374 L353.720055,466.205842 L354.227295,466.709715 L356.759961,467.716282 L357.772086,467.713928 L358.779504,466.697942 L360.296514,466.695587 L360.803754,467.19946 L364.347368,467.190042 L364.851077,466.683815 L365.354786,465.670183 L365.352432,465.165134 L365.857318,464.657729 L366.868266,464.655375 L368.891339,464.145616 L369.902287,464.143261 L370.407173,463.635857 L372.427892,462.11129 L373.437664,461.602708 L377.013054,459.052737 Z M376.964802,439.313415 L376.458739,438.808365 L376.457562,438.302138 L375.445437,438.304493 L375.450145,440.328223 L374.946436,441.340678 L374.947613,441.846905 L375.456029,442.858181 L375.467798,447.410693 L375.975038,447.913388 L377.492048,447.911033 L378.994936,441.833955 L379.497468,440.312919 L380,439.300465 L376.964802,439.313415 Z M20.5590845,154.725535 L21.0639701,154.219308 L21.5700327,154.216954 L21.566502,152.700627 L22.0725645,152.69945 L22.579804,153.709549 L22.5809808,154.214599 L25.1112935,154.208713 L25.6150022,153.701309 L26.6271273,153.698954 L27.1296592,152.6865 L28.1417842,152.684145 L28.6478468,153.188018 L29.1539093,153.186841 L29.1503786,152.175564 L29.6552643,151.66816 L29.6529105,150.656883 L31.1699212,150.653351 L31.1687443,150.147124 L30.1577961,150.149478 L30.1566192,149.643251 L30.6615049,149.643251 L31.1663905,149.135847 L31.6748068,150.145947 L31.6759837,150.652174 L31.6748068,150.145947 L32.1785156,149.63972 L34.2015888,149.633833 L34.2004119,149.128784 L34.7041207,148.621379 L34.7064744,149.127606 L34.70059,147.103875 L34.1945275,147.105053 L34.1968812,148.11633 L33.6919956,148.117507 L33.6908187,147.612457 L31.6689224,147.617166 L31.1605061,147.113294 L31.1593292,146.607067 L29.6423185,146.610598 L28.1264847,147.625407 L25.0924633,148.138698 L23.06939,148.144584 L23.0705669,148.649634 L22.5668582,149.157038 L22.0619725,149.158215 L22.0655032,150.675719 L21.0557319,151.68935 L21.065147,155.230585 L20.5590845,154.725535 Z M19.5540208,156.751621 L19.5551977,157.257848 L19.5540208,156.751621 L20.564969,156.749266 L20.5626152,156.243039 L20.0589064,156.244216 L19.5540208,156.751621 Z M27.6686746,164.831239 L27.6663208,164.325012 L28.1712065,163.818785 L31.2052279,163.810544 L31.204051,163.305495 L30.6991653,163.305495 L30.6968116,162.295395 L29.1762702,160.780246 L28.6702077,160.781423 L28.6713845,161.28765 L28.1664989,161.795054 L27.663967,162.807508 L27.1590814,163.314913 L26.6530189,163.31609 L26.6541958,163.822317 L27.6686746,164.831239 Z M364.681605,382.148612 L364.678074,381.137335 L363.664772,380.128413 L363.665949,380.63464 L364.681605,382.148612 Z M301.735664,299.801958 L302.241727,299.800781 L301.736841,300.308185 L301.738018,300.814412 L302.750143,300.812057 L302.745436,298.788326 L301.733311,298.790681 L301.734488,299.296908 L301.230779,299.803135 L301.735664,299.801958 Z M323.086796,340.241256 L323.595212,341.251355 L323.597566,342.263809 L324.102451,342.262632 L324.100098,341.250178 L323.086796,340.241256 L323.082088,338.723752 L323.086796,340.241256 Z M315.985444,332.666687 L315.479381,332.667864 L315.988974,334.185368 L317.509516,335.69934 L318.525172,337.216844 L319.032411,337.720716 L319.034765,338.731993 L320.555306,340.245965 L320.556483,340.752192 L321.567431,340.749837 L321.56037,338.221057 L321.05313,337.716007 L320.548245,337.717184 L320.041005,337.212134 L320.037475,335.694631 L320.541183,334.682177 L320.540007,334.177127 L319.026526,335.698162 L318.520464,335.69934 L319.02535,335.191935 L317.508339,335.195467 L317.507162,334.690418 L315.990151,334.693949 L315.991328,335.198999 L316.497391,335.704049 L315.985444,332.666687 Z M365.69373,382.652484 L365.191198,383.666116 L365.198259,386.7023 L364.189665,387.715932 L364.193196,388.728386 L364.700435,389.737308 L365.206498,389.736131 L365.207675,390.242358 L365.717268,391.761039 L365.719622,392.772316 L367.240163,394.286288 L367.743872,393.778883 L368.24758,392.766429 L368.245227,391.753975 L367.73681,390.743876 L367.73681,390.237649 L369.746938,384.66562 L372.261951,379.092413 L374.275609,374.531661 L374.273255,373.520384 L374.776964,373.01298 L374.77461,372.001703 L373.254069,370.487731 L373.252892,369.982682 L372.743299,368.464001 L372.73153,363.404085 L371.720582,363.912666 L371.216873,364.420071 L369.702216,366.448511 L370.208278,366.447333 L371.22158,367.456256 L372.23959,369.476455 L372.244298,371.500185 L370.734348,374.538725 L369.724577,375.047306 L367.198972,377.078101 L366.695263,377.585505 L366.697617,378.597959 L367.202502,378.595605 L367.203679,379.101832 L366.699971,379.608059 L367.209564,381.12674 L365.69373,382.652484 Z M373.906066,429.70452 L373.916658,434.259386 L374.423897,434.764435 L374.429782,437.293216 L374.937021,437.798266 L374.924075,432.73835 L375.926785,429.193584 L375.924431,428.182307 L374.913483,428.184661 L374.408597,428.690888 L373.397649,428.693243 L373.906066,429.70452 Z M266.705545,251.804573 L266.199483,251.80575 L266.704368,251.299523 L266.705545,251.804573 L268.222556,251.801041 L267.715317,251.297169 L267.711786,249.779665 L267.715317,251.297169 L266.705545,251.804573 Z M297.146972,285.134324 L298.159097,285.638197 L298.663983,285.637019 L298.660452,284.119516 L298.155566,284.62692 L297.144618,284.629274 L297.146972,285.134324 Z M296.130139,283.114125 L296.635025,283.112948 L296.633848,282.606721 L295.113307,281.093926 L295.114483,281.598976 L296.130139,283.114125 Z M287.055143,296.802268 L287.057497,297.307318 L287.561206,297.306141 L288.570977,296.29251 L288.56627,294.268779 L288.05903,293.763729 L288.054323,291.741175 L287.549437,291.742353 L287.044551,292.249757 L287.046905,293.261034 L286.54202,293.768438 L286.54555,295.284765 L287.055143,296.802268 Z M283.024297,303.392638 L283.530359,303.391461 L284.032891,302.377829 L284.030537,301.366552 L284.5366,301.365375 L284.030537,300.860325 L283.524475,300.86268 L283.529182,302.885234 L283.024297,303.392638 Z" id="Fill-3" fill-opacity="0.4" fill="#FFFFFF"></path>
            </g>
        </g>
    </g>
</svg>